<?xml version="1.0" encoding="UTF-8"?>
<svg xmlns="http://www.w3.org/2000/svg" xmlns:xlink="http://www.w3.org/1999/xlink" xmlns:svgjs="http://svgjs.dev/svgjs" version="1.1" width="1000" height="1125" viewBox="0 0 1000 1125">
  <g transform="matrix(1,0,0,1,1.7053025658242404e-13,0)">
    <svg xmlns="http://www.w3.org/2000/svg" xmlns:xlink="http://www.w3.org/1999/xlink" viewBox="0 0 320 360" data-background-color="#ffffff" preserveAspectRatio="xMidYMid meet" height="1125" width="1000">
      <g id="tight-bounds" transform="matrix(1,0,0,1,0,0)">
        <svg viewBox="0 0 320 360" height="360" width="320">
          <g>
            <svg></svg>
          </g>
          <g>
            <svg viewBox="0 0 320 360" height="360" width="320">
              <g>
                <path xmlns="http://www.w3.org/2000/svg" d="M20.961 227.22l3.726 4.658-1.863-6.056c-0.466-2.795-3.726 0.466-1.863 1.398M25.153 224.425c1.397 2.329 2.795 4.658 2.795 6.987 0 3.261 2.795 4.658 5.123 5.589-3.261-3.726-5.124-13.974-7.918-12.576M204.017 26.929c7.918 0 15.371-0.932 23.756 0.931 20.495 5.124 37.729 15.371 49.374 29.811l32.606 52.169c1.397 13.042 4.192 27.482 3.726 43.319 3.261 0 2.795-4.658 6.521-5.59-3.726 9.316-5.59 20.961-6.521 34.469-2.329-7.453 0-18.632 0.466-24.687-3.261 5.124-5.124 1.397-5.124-0.932 0.466-3.726-1.397-3.261-2.795-4.658-5.124-4.658-8.384-9.782-12.11-17.7 2.329-6.055 2.795-14.905-4.658-19.563-2.329-1.397-5.124-3.726-6.521-7.453-1.863-5.124-5.124-11.179-4.193-19.097 0.466-2.329-6.987 5.124-11.179 1.863-18.166-12.576-36.332-27.016-58.224-39.127-11.645 0-20.029-4.192-24.221-9.316-3.726-4.658-0.932-10.713 4.658-11.179 3.261 0 6.987-0.932 9.782 0.932 0.466-1.863 2.329-4.192 4.657-4.192M157.904 16.215l0.932 0.466c4.658 0.932 6.987 7.453 12.11 5.124 0 3.261 0.466 6.521-0.466 8.85-1.397 3.726-5.59 3.726-8.85 3.726-31.208-1.863-49.374 11.179-68.471 22.358-5.124 3.261-10.713 5.59-14.906 9.782-20.029 18.632-41.921 35.866-47.045 70.335l-4.192 38.195c-0.466 4.192-5.124 8.384-4.192 13.508l3.26 22.824c-3.261-3.261-5.124 0.932-4.192 2.795 0.466 1.397 2.329 6.055 5.124 1.863 3.726 6.987 7.453 20.495 12.576 26.55 15.837 18.632 36.332 35.4 53.101 52.169 4.192-0.932 7.453-0.932 8.384-3.727 1.397 2.795-1.397 5.59-3.726 6.056 7.453 4.658 15.837 8.85 27.016 9.781 14.44 0.932 27.948 3.261 40.524 6.522 6.521-1.863 13.042-2.795 20.029-3.261 2.329 0 3.726-3.726 6.521-4.658l0.466-4.658c2.795 4.192 2.329-1.397 0.466-4.192 3.261 2.795 4.192 5.124 5.589 6.987 0-1.397 3.726-6.521 3.727-0.466l0.931-6.055c1.397-0.932 1.863 5.124 3.261 0.931 1.397-4.192 4.192-0.932 6.987-2.329-0.932 1.863-0.466 5.59 2.794 3.261l3.727-3.261c2.329 5.59 6.055 3.261 7.918 2.329 20.495-13.042 40.99-28.413 60.553-43.784l-0.466 6.055 2.329-7.453c2.329 2.329 4.192 0.466 5.124-0.931 2.795-4.658 6.521-9.316 12.577-13.508-7.453 20.029-16.303 35.866-27.482 48.908l-4.658 5.59c0 3.261-0.932 7.453-4.658 7.918-1.863 0.466-5.59-0.932-8.384 1.863-1.397 1.863 3.261 5.59-0.466 2.795-3.261-2.329-6.521 0-10.248 0.932-2.795 0.932 1.863 3.726 2.795 5.589 0.932 1.863 1.863 3.726 1.398 6.056l-5.124-5.59c-6.055 3.261-9.782 9.316-14.906 13.974-2.329 1.863-1.397 5.124-1.397 7.918-3.261 0-6.987-0.932-8.85 0.932-1.397 1.863-0.932 4.658-0.932 7.453-4.658-0.466-5.124-7.453-9.315-6.056-4.192 0.932-8.85 1.397-12.577 3.727 2.795 5.59-4.658 2.329-3.726 3.26-6.987-4.192-13.042-7.453-20.495-4.658-15.837-5.124-35.4-2.795-49.84-0.931 0-2.329 0.466-4.658-0.466-5.124-0.932 2.329-3.726 1.397-3.26 1.397-8.85-6.055-17.7-9.782-27.016-14.905-8.384 0.932-16.303-3.261-18.632-5.59-6.521-6.055-13.974-2.795-20.029-4.192-13.042-3.261-17.7-16.769-19.098-26.084-0.932-4.658-4.658-6.521-6.055-6.056-6.055-19.563-15.371-37.263-22.824-55.429-1.863-4.658-1.397-9.316-1.397-14.44 2.329 0.932 4.658 0.466 4.192-2.794-2.329-15.371-7.918-27.016-13.974-38.195 3.261-15.837 3.726-34.469 11.179-48.443 6.521-12.576 18.632-19.098 27.016-29.811 2.795-3.726 2.795-8.85 5.59-12.11 9.316-9.316 18.632-19.098 28.879-27.482 4.658-3.726 10.247 0 17.234-1.397 2.329-8.384 11.645-15.837 20.495-13.508 3.726 0.932 11.179-8.85 13.508-9.782 3.726-1.397 1.863 3.726 1.863 6.987 8.85-6.987 20.961-10.713 32.14-14.906" fill="#6f605b" fill-rule="nonzero" stroke="none" stroke-width="1" stroke-linecap="butt" stroke-linejoin="miter" stroke-miterlimit="10" stroke-dasharray="" stroke-dashoffset="0" font-family="none" font-weight="none" font-size="none" text-anchor="none" style="mix-blend-mode: normal" data-fill-palette-color="tertiary"></path>
              </g>
              <g transform="matrix(1,0,0,1,64,119.91399350756534)">
                <svg viewBox="0 0 192 120.17201298486933" height="120.17201298486933" width="192">
                  <g>
                    <svg viewBox="0 0 192 120.17201298486933" height="120.17201298486933" width="192">
                      <g>
                        <svg viewBox="0 0 192 120.17201298486933" height="120.17201298486933" width="192">
                          <g transform="matrix(1,0,0,1,0,72.63418629986245)">
                            <svg viewBox="0 0 192 47.53782668500688" height="47.53782668500688" width="192">
                              <g id="textblocktransform">
                                <svg viewBox="0 0 192 47.53782668500688" height="47.53782668500688" width="192" id="textblock">
                                  <g>
                                    <svg viewBox="0 0 192 47.53782668500688" height="47.53782668500688" width="192">
                                      <g transform="matrix(1,0,0,1,0,0)">
                                        <svg width="192" viewBox="1.100000023841858 -35.5 145.37998962402344 36" height="47.53782668500688" data-palette-color="#6f605b">
                                          <path d="M9.2 0.5Q5.2 0.5 3.15-1.78 1.1-4.05 1.1-8.3L1.1-8.3 1.1-10.3 6.3-10.3 6.3-7.9Q6.3-4.5 9.15-4.5L9.15-4.5Q10.55-4.5 11.28-5.33 12-6.15 12-8L12-8Q12-10.2 11-11.88 10-13.55 7.3-15.9L7.3-15.9Q3.9-18.9 2.55-21.33 1.2-23.75 1.2-26.8L1.2-26.8Q1.2-30.95 3.3-33.23 5.4-35.5 9.4-35.5L9.4-35.5Q13.35-35.5 15.38-33.23 17.4-30.95 17.4-26.7L17.4-26.7 17.4-25.25 12.2-25.25 12.2-27.05Q12.2-28.85 11.5-29.68 10.8-30.5 9.45-30.5L9.45-30.5Q6.7-30.5 6.7-27.15L6.7-27.15Q6.7-25.25 7.73-23.6 8.75-21.95 11.45-19.6L11.45-19.6Q14.9-16.6 16.2-14.15 17.5-11.7 17.5-8.4L17.5-8.4Q17.5-4.1 15.38-1.8 13.25 0.5 9.2 0.5L9.2 0.5ZM28.65 0.5Q24.65 0.5 22.55-1.78 20.45-4.05 20.45-8.3L20.45-8.3 20.45-35 25.95-35 25.95-7.9Q25.95-6.1 26.67-5.3 27.4-4.5 28.75-4.5L28.75-4.5Q30.1-4.5 30.82-5.3 31.55-6.1 31.55-7.9L31.55-7.9 31.55-35 36.85-35 36.85-8.3Q36.85-4.05 34.75-1.78 32.65 0.5 28.65 0.5L28.65 0.5ZM47.9 0.5Q43.9 0.5 41.85-1.78 39.8-4.05 39.8-8.3L39.8-8.3 39.8-10.3 45-10.3 45-7.9Q45-4.5 47.85-4.5L47.85-4.5Q49.25-4.5 49.97-5.33 50.7-6.15 50.7-8L50.7-8Q50.7-10.2 49.7-11.88 48.7-13.55 46-15.9L46-15.9Q42.6-18.9 41.25-21.33 39.9-23.75 39.9-26.8L39.9-26.8Q39.9-30.95 42-33.23 44.1-35.5 48.1-35.5L48.1-35.5Q52.05-35.5 54.07-33.23 56.1-30.95 56.1-26.7L56.1-26.7 56.1-25.25 50.9-25.25 50.9-27.05Q50.9-28.85 50.2-29.68 49.5-30.5 48.15-30.5L48.15-30.5Q45.4-30.5 45.4-27.15L45.4-27.15Q45.4-25.25 46.42-23.6 47.45-21.95 50.15-19.6L50.15-19.6Q53.6-16.6 54.9-14.15 56.2-11.7 56.2-8.4L56.2-8.4Q56.2-4.1 54.07-1.8 51.95 0.5 47.9 0.5L47.9 0.5ZM59.34 0L59.34-35 64.84-35 64.84-20.75 70.74-20.75 70.74-35 76.24-35 76.24 0 70.74 0 70.74-15.75 64.84-15.75 64.84 0 59.34 0ZM80.34 0L80.34-35 85.84-35 85.84 0 80.34 0ZM89.94 0L89.94-35 98.04-35Q102.14-35 104.19-32.8 106.24-30.6 106.24-26.35L106.24-26.35 106.24-22.9Q106.24-18.65 104.19-16.45 102.14-14.25 98.04-14.25L98.04-14.25 95.44-14.25 95.44 0 89.94 0ZM95.44-19.25L98.04-19.25Q99.39-19.25 100.06-20 100.74-20.75 100.74-22.55L100.74-22.55 100.74-26.7Q100.74-28.5 100.06-29.25 99.39-30 98.04-30L98.04-30 95.44-30 95.44-19.25ZM117.19 0.5Q113.14 0.5 110.99-1.8 108.84-4.1 108.84-8.3L108.84-8.3 108.84-26.7Q108.84-30.9 110.99-33.2 113.14-35.5 117.19-35.5L117.19-35.5Q121.24-35.5 123.39-33.2 125.54-30.9 125.54-26.7L125.54-26.7 125.54-8.3Q125.54-4.1 123.39-1.8 121.24 0.5 117.19 0.5L117.19 0.5ZM117.19-4.5Q120.04-4.5 120.04-7.95L120.04-7.95 120.04-27.05Q120.04-30.5 117.19-30.5L117.19-30.5Q114.34-30.5 114.34-27.05L114.34-27.05 114.34-7.95Q114.34-4.5 117.19-4.5L117.19-4.5ZM129.23 0L129.23-35 136.13-35 141.48-14.05 141.58-14.05 141.58-35 146.48-35 146.48 0 140.83 0 134.23-25.55 134.13-25.55 134.13 0 129.23 0Z" opacity="1" transform="matrix(1,0,0,1,0,0)" fill="#6f605b" class="undefined-text-0" data-fill-palette-color="primary" id="text-0"></path>
                                        </svg>
                                      </g>
                                    </svg>
                                  </g>
                                </svg>
                              </g>
                            </svg>
                          </g>
                          <g transform="matrix(1,0,0,1,50.506927748337155,0)">
                            <svg viewBox="0 0 90.98614450332569 65.69727647867951" height="65.69727647867951" width="90.98614450332569">
                              <g>
                                <svg xmlns="http://www.w3.org/2000/svg" xmlns:xlink="http://www.w3.org/1999/xlink" version="1.1" x="0" y="0" viewBox="0.1838831901550293 17.92599868774414 99.81611633300781 72.07302856445312" xml:space="preserve" height="65.69727647867951" width="90.98614450332569" class="icon-icon-0" data-fill-palette-color="accent" id="icon-0">
                                  <g fill="#f36527" data-fill-palette-color="accent">
                                    <path fill="none" d="M40.154 43.807l3.909 1.446c0.605 0.225 1.592 0.225 2.197 0l3.91-1.446c0.605-0.223 0.605-0.589 0-0.812l-3.91-1.448c-0.605-0.222-1.593-0.222-2.197 0l-3.909 1.448C39.55 43.218 39.55 43.584 40.154 43.807z"></path>
                                    <path d="M33.27 81.744c0 0 0 0 0.585-0.258-0.585 0.258-1.158 0.52-1.72 0.779-1.251 0.582-2.441 1.161-3.547 1.729-5.04 2.582-8.376 4.896-8.016 5.71 0.361 0.812 4.316-0.104 9.612-2.11 1.165-0.438 2.392-0.931 3.661-1.469 0.572-0.242 1.152-0.492 1.735-0.752-0.583 0.26-0.583 0.26-0.583 0.26-0.635 0.271 1.118-0.421 3.892-1.533L100 59.559V49.223L37.024 79.887C34.332 81.199 32.645 82.033 33.27 81.744z" fill="#f36527" data-fill-palette-color="accent"></path>
                                    <path d="M48.65 82.99c2.642 1.033 6.923 1.033 9.563 0l24.975-9.746c1.435-0.561 2.096-1.211 2.142-2.066v0.081l0.008-2.505L48.584 82.965 48.65 82.99z" fill="#f36527" data-fill-palette-color="accent"></path>
                                    <path d="M72.379 31.374c-2.021 0.986-5.332 2.597-7.355 3.582l-0.537 0.263 9.998 3.903c0.406-0.162 0.789-0.317 1.134-0.454L100 28.876v-10.95L72.379 31.374z" fill="#f36527" data-fill-palette-color="accent"></path>
                                    <path d="M9.76 61.128c0 0 0 0 0.441-0.192-0.441 0.192-0.873 0.392-1.297 0.588-0.94 0.436-1.836 0.873-2.669 1.3-3.792 1.944-6.303 3.684-6.031 4.298 0.272 0.613 3.249-0.079 7.233-1.588 0.876-0.33 1.8-0.7 2.755-1.106 0.43-0.183 0.866-0.37 1.306-0.565-0.44 0.195-0.44 0.195-0.44 0.195-0.477 0.205 0.843-0.314 2.931-1.154l4.684-1.881v-4.254l-6.09 2.963C10.56 60.717 9.289 61.348 9.76 61.128z" fill="#f36527" data-fill-palette-color="accent"></path>
                                    <path d="M36.887 44.873l4.417 1.635 7.7 2.848 1.221 0.453c2.062 0.763 5.439 0.763 7.501 0l13.338-4.936c2.058-0.764 2.058-2.013-0.004-2.776l-2.074-0.768-9.688-3.584-1.573-0.583c-2.062-0.764-5.438-0.764-7.5 0l-13.337 4.937C34.825 42.861 34.825 44.11 36.887 44.873zM40.154 42.995l3.909-1.448c0.604-0.222 1.592-0.222 2.197 0l3.91 1.448c0.605 0.223 0.605 0.589 0 0.812l-3.91 1.446c-0.605 0.225-1.592 0.225-2.197 0l-3.909-1.446C39.55 43.584 39.55 43.218 40.154 42.995z" fill="#f36527" data-fill-palette-color="accent"></path>
                                    <path d="M23.677 73.244L35.04 77.68l4.745-2.234 45.551-21.456v-8.741c-0.301 0.438-0.886 0.854-1.771 1.198l-25.291 9.869c-2.672 1.045-7.008 1.045-9.685 0l-8.583-3.349-6.647-2.595-10.064-3.925c-0.881-0.346-1.468-0.762-1.767-1.2v10.888 4.252 10.503C21.598 71.764 22.036 72.605 23.677 73.244zM23.598 48.603l2.812 1.113V71.82l-2.812-1.168V48.603z" fill="#f36527" data-fill-palette-color="accent"></path>
                                  </g>
                                </svg>
                              </g>
                            </svg>
                          </g>
                          <g></g>
                        </svg>
                      </g>
                    </svg>
                  </g>
                </svg>
              </g>
            </svg>
          </g>
          <defs></defs>
        </svg>
        <rect width="320" height="360" fill="none" stroke="none" visibility="hidden"></rect>
      </g>
    </svg>
  </g>
</svg>
